<?xml version="1.0" encoding="utf-8"?>
<!-- Generator: Adobe Illustrator 27.5.0, SVG Export Plug-In . SVG Version: 6.00 Build 0)  -->
<svg version="1.1" id="Layer_1" xmlns="http://www.w3.org/2000/svg" xmlns:xlink="http://www.w3.org/1999/xlink" x="0px" y="0px"
	 viewBox="0 0 4000 4000" style="enable-background:new 0 0 4000 4000;" xml:space="preserve">
<g>
	<defs>
		<rect id="SVGID_1_" width="4000" height="4000"/>
	</defs>
	<clipPath id="SVGID_00000047743666924829079520000001941031944474653875_">
		<use xlink:href="#SVGID_1_"  style="overflow:visible;"/>
	</clipPath>
	
		<rect x="15.873" y="15.873" style="clip-path:url(#SVGID_00000047743666924829079520000001941031944474653875_);fill-rule:evenodd;clip-rule:evenodd;fill:#FFFFFF;" width="3968.255" height="3968.255"/>
	
		<path style="clip-path:url(#SVGID_00000047743666924829079520000001941031944474653875_);fill-rule:evenodd;clip-rule:evenodd;" d="
		M2619.837,2976.067v-58.711h43.464v9.922h-31.572v13.034h29.358v9.925h-29.358v15.909h32.719v9.92H2619.837z M2519.989,2976.067
		v-58.711h11.512l24.161,39.346v-39.346h10.989v58.711h-11.879l-23.791-38.594v38.594H2519.989z M2456.171,2976.067v-58.711h11.892
		v58.711H2456.171z M2366.199,2976.067v-58.225h11.887v48.305h29.443v9.92H2366.199z M2288.761,2954.503v-9.92h25.507v23.423
		c-2.474,2.42-6.07,4.535-10.785,6.379c-4.701,1.836-9.471,2.744-14.307,2.744c-6.136,0-11.482-1.281-16.044-3.86
		c-4.554-2.587-7.982-6.29-10.281-11.09c-2.295-4.792-3.443-10.03-3.443-15.671c0-6.128,1.282-11.568,3.838-16.333
		c2.575-4.755,6.317-8.419,11.249-10.96c3.77-1.957,8.449-2.928,14.051-2.928c7.285,0,12.985,1.533,17.088,4.594
		c4.081,3.078,6.722,7.301,7.896,12.711l-11.811,2.213c-0.819-2.884-2.375-5.165-4.657-6.847c-2.271-1.67-5.116-2.497-8.535-2.497
		c-5.165,0-9.277,1.636-12.323,4.93c-3.051,3.293-4.576,8.171-4.576,14.641c0,6.979,1.54,12.212,4.635,15.703
		c3.095,3.482,7.144,5.233,12.162,5.233c2.469,0,4.958-0.495,7.446-1.462c2.501-0.973,4.635-2.165,6.425-3.555v-7.446H2288.761z
		 M2192.774,2952.779l-8.162-21.731l-7.928,21.731H2192.774z M2214.504,2976.067h-12.809l-5.066-13.366h-23.553l-4.878,13.366
		h-12.576l22.799-58.711h12.562L2214.504,2976.067z M2090.182,2976.067v-48.789h-17.387v-9.922h46.583v9.922h-17.309v48.789
		H2090.182z M1958.874,2976.067v-58.711h43.459v9.922h-31.572v13.034h29.358v9.925h-29.358v15.909h32.724v9.92H1958.874z
		 M1849.771,2976.067v-58.711h17.812l10.52,40.045l10.401-40.045h17.853v58.711h-10.992l-0.044-46.225l-11.573,46.225h-11.423
		l-11.524-46.225l-0.04,46.225H1849.771z M1755.285,2946.67c0,6.658,1.54,11.703,4.617,15.144c3.073,3.428,6.982,5.152,11.715,5.152
		c4.738,0,8.62-1.709,11.671-5.111c3.029-3.416,4.544-8.527,4.544-15.347c0-6.736-1.471-11.771-4.436-15.077
		c-2.951-3.325-6.874-4.971-11.779-4.971c-4.895,0-8.846,1.678-11.842,5.03C1756.789,2934.85,1755.285,2939.903,1755.285,2946.67z
		 M1743.065,2947.07c0-5.993,0.9-11.023,2.692-15.095c1.327-2.987,3.157-5.682,5.47-8.063c2.305-2.375,4.833-4.135,7.587-5.3
		c3.662-1.543,7.882-2.325,12.665-2.325c8.666,0,15.582,2.694,20.787,8.066c5.192,5.385,7.789,12.863,7.789,22.442
		c0,9.498-2.578,16.931-7.73,22.285c-5.155,5.373-12.058,8.049-20.683,8.049c-8.733,0-15.688-2.663-20.841-8.003
		C1745.645,2963.794,1743.065,2956.442,1743.065,2947.07z M1647.088,2957.046l11.558-1.148c0.697,3.87,2.092,6.69,4.211,8.512
		c2.119,1.817,4.976,2.722,8.571,2.722c3.798,0,6.673-0.81,8.593-2.421c1.927-1.616,2.898-3.497,2.898-5.66
		c0-1.395-0.409-2.57-1.214-3.555c-0.806-0.971-2.232-1.813-4.247-2.528c-1.383-0.491-4.532-1.34-9.444-2.568
		c-6.335-1.584-10.771-3.529-13.327-5.836c-3.595-3.235-5.387-7.189-5.387-11.846c0-2.997,0.846-5.809,2.525-8.419
		c1.7-2.609,4.135-4.598,7.316-5.962c3.181-1.368,7.014-2.051,11.517-2.051c7.344,0,12.873,1.633,16.58,4.895
		c3.721,3.267,5.66,7.608,5.849,13.062l-11.892,0.409c-0.503-3.028-1.584-5.201-3.24-6.53c-1.651-1.322-4.139-1.997-7.446-1.997
		c-3.416,0-6.092,0.716-8.022,2.133c-1.243,0.917-1.871,2.132-1.871,3.662c0,1.395,0.584,2.587,1.759,3.573
		c1.494,1.268,5.116,2.578,10.87,3.946c5.751,1.349,10.008,2.776,12.752,4.224c2.762,1.463,4.922,3.443,6.479,5.971
		c1.556,2.533,2.335,5.643,2.335,9.349c0,3.362-0.932,6.521-2.798,9.454c-1.876,2.943-4.513,5.128-7.928,6.551
		c-3.419,1.435-7.684,2.141-12.782,2.141c-7.423,0-13.12-1.705-17.098-5.133C1650.232,2968.582,1647.865,2963.591,1647.088,2957.046
		z M1554.88,2976.067v-58.711h43.457v9.922h-31.57v13.034h29.358v9.925h-29.358v15.909h32.723v9.92H1554.88z M1444.912,2976.067
		l-13.799-58.711h12.215l8.738,40.332l10.717-40.332h14.133l10.244,41.016l8.941-41.016h11.931l-14.15,58.711h-12.696
		l-11.568-43.894l-11.666,43.894H1444.912z M1372.689,2952.779l-8.157-21.731l-7.931,21.731H1372.689z M1394.422,2976.067h-12.806
		l-5.067-13.366h-23.553l-4.877,13.366h-12.576l22.794-58.711h12.561L1394.422,2976.067z"/>
	
		<path style="clip-path:url(#SVGID_00000047743666924829079520000001941031944474653875_);fill-rule:evenodd;clip-rule:evenodd;" d="
		M2998.369,2788.399v-75.862c0-18.682,11.784-35.054,30.748-35.054c18.969,0,26.731,15.796,26.731,34.478v76.439h35.05v-76.439
		c0-42.527-19.82-67.242-60.052-67.242c-18.398,0-34.771,5.746-47.414,25.866c-8.054-19.544-25.002-26.442-41.96-26.442
		c-13.506,0-29.878,5.179-37.358,19.541l-2.583-17.241h-32.475v141.957h35.057v-75.862c0-18.682,11.212-35.631,30.174-35.631
		c19.252,0,29.024,16.948,29.024,35.631v75.862H2998.369z M2646.877,2646.729v74.432c0,43.957,24.715,69.536,58.622,69.536
		c19.828,0,33.34-6.896,47.993-21.263l2.295,18.964h31.323v-141.67h-34.77v72.272c0,21.696-14.654,39.796-36.205,39.796
		c-22.415,0-34.194-16.373-34.194-37.924v-74.144H2646.877z M2566.08,2661.387c-16.377-14.371-33.048-18.676-55.176-18.676
		c-25.861,0-59.768,11.49-59.768,44.246c0,32.188,31.896,41.956,58.617,43.967c20.12,1.151,28.161,5.177,28.161,14.945
		c0,10.344-12.355,17.242-25.571,16.953c-15.801-0.287-38.792-8.62-48.852-19.823l-17.241,24.998
		c20.687,21.552,43.102,25.282,65.518,25.282c40.519,0,60.92-21.552,60.92-46.549c0-37.646-33.912-43.679-60.633-45.401
		c-18.101-1.153-26.437-6.322-26.437-15.519c0-8.905,9.192-14.084,25.861-14.084c13.512,0,25.002,3.163,35.064,12.644
		L2566.08,2661.387z M2258.549,2847.595v-75.867c10.06,15.518,32.188,20.121,47.13,20.121c45.397,0,71.552-32.764,71.552-74.14
		c0-41.667-29.025-74.143-72.704-74.143c-16.085,0-35.054,6.898-45.978,22.704l-2.295-19.541h-32.764v200.866H2258.549z
		 M2301.94,2757.943c-23.845,0-40.227-18.106-40.227-40.234c0-22.126,14.941-40.227,40.227-40.227
		c25.291,0,40.233,18.101,40.233,40.227C2342.173,2739.837,2325.794,2757.943,2301.94,2757.943z M2139.534,2788.399v-201.442
		h-37.646v201.442H2139.534z M1861.896,2788.399v-75.862c0-18.682,11.779-35.054,30.748-35.054
		c18.964,0,26.731,15.796,26.731,34.478v76.439h35.05v-76.439c0-42.527-19.825-67.242-60.052-67.242
		c-18.398,0-34.77,5.746-47.419,25.866c-8.049-19.544-24.998-26.442-41.956-26.442c-13.506,0-29.883,5.179-37.358,19.541
		l-2.582-17.241h-32.475v141.957h35.057v-75.862c0-18.682,11.212-35.631,30.172-35.631c19.253,0,29.026,16.948,29.026,35.631v75.862
		H1861.896z M1547.478,2701.04c5.17-18.388,20.687-27.585,39.656-27.585c20.112,0,34.483,9.197,36.781,27.585H1547.478z
		 M1657.535,2730.064c5.462-58.338-24.139-87.641-71.553-87.641c-45.978,0-75.29,31.032-75.29,74.135
		c0,45.402,29.024,75.578,77.874,75.578c21.56,0,45.983-7.473,60.923-22.991l-22.415-22.128c-8.044,8.338-24.997,13.22-37.934,13.22
		c-24.709,0-39.94-12.644-42.238-30.174H1657.535z M1341.389,2646.729v141.67h35.058v-74.712c0-26.155,16.958-35.926,35.346-35.926
		c11.496,0,18.106,3.162,25.291,9.197l15.806-30.461c-7.762-7.752-21.841-13.498-36.499-13.498c-14.366,0-29.02,2.583-39.945,20.107
		l-2.583-16.377H1341.389z M1192.489,2675.754c23.563,0,38.51,20.688,38.51,41.956c0,21.552-12.931,41.664-38.51,41.664
		c-25.574,0-38.51-20.112-38.51-41.664C1153.979,2696.442,1167.203,2675.754,1192.489,2675.754z M1192.2,2643.855
		c-45.117,0-73.278,33.339-73.278,73.854c0,40.81,27.593,73.852,73.567,73.852c45.978,0,73.851-33.042,73.851-73.852
		C1266.34,2677.193,1237.319,2643.855,1192.2,2643.855z M909.097,2586.957v201.442h141.386v-35.059H947.031v-166.383H909.097z"/>
	<g style="clip-path:url(#SVGID_00000047743666924829079520000001941031944474653875_);">
		<defs>
			<path id="SVGID_00000158728571569337458160000007400625771028397489_" d="M2252.34,1247.079
				c-83.948-44.516-179.494-69.775-280.652-69.775h-808.885c-27.491,0-49.978,22.483-49.978,49.979v552.786
				c0,331.521,271.23,602.751,602.755,602.751h808.88c27.491,0,49.978-22.487,49.978-49.978v-268.334
				c-17.547,15.901-40.816,25.62-66.279,25.62h-156.966c-27.224,0-51.944-11.114-69.842-29.011
				c-17.898-17.898-29.012-42.626-29.012-69.847v-215.048h-215.043c-27.221,0-51.949-11.112-69.847-29.01
				c-17.898-17.899-29.012-42.627-29.012-69.847v-156.963c0-27.222,11.114-51.949,29.012-69.847
				c17.898-17.898,42.626-29.012,69.847-29.012h215.043V1247.079z"/>
		</defs>
		<clipPath id="SVGID_00000152959094753427201890000006364635986676479660_">
			<use xlink:href="#SVGID_00000158728571569337458160000007400625771028397489_"  style="overflow:visible;"/>
		</clipPath>
		
			<linearGradient id="SVGID_00000072961899529677896240000016276675710765442694_" gradientUnits="userSpaceOnUse" x1="2670.012" y1="2787.9736" x2="1120.8619" y2="898.5204">
			<stop  offset="0" style="stop-color:#045304"/>
			<stop  offset="1" style="stop-color:#B0F122"/>
		</linearGradient>
		
			<rect x="1112.825" y="1177.304" style="clip-path:url(#SVGID_00000152959094753427201890000006364635986676479660_);fill:url(#SVGID_00000072961899529677896240000016276675710765442694_);" width="1461.613" height="1205.516"/>
	</g>
	<defs>
		<filter id="Adobe_OpacityMaskFilter" filterUnits="userSpaceOnUse" x="1512.599" y="1533.341" width="1061.84" height="849.479">
			<feColorMatrix  type="matrix" values="1 0 0 0 0  0 1 0 0 0  0 0 1 0 0  0 0 0 1 0"/>
		</filter>
	</defs>
	
		<mask maskUnits="userSpaceOnUse" x="1512.599" y="1533.341" width="1061.84" height="849.479" id="SVGID_00000016055962964223495860000001785581407165016999_">
		<g style="filter:url(#Adobe_OpacityMaskFilter);">
			
				<linearGradient id="SVGID_00000023994761986905502480000015437055241344334006_" gradientUnits="userSpaceOnUse" x1="2977.1545" y1="2624.832" x2="1059.4478" y2="1569.1553" gradientTransform="matrix(1 0 0 1 94.297 -100.8859)">
				<stop  offset="0" style="stop-color:#FFFFFF"/>
				<stop  offset="1" style="stop-color:#000000"/>
			</linearGradient>
			
				<rect x="1512.599" y="1533.341" style="clip-path:url(#SVGID_00000047743666924829079520000001941031944474653875_);fill:url(#SVGID_00000023994761986905502480000015437055241344334006_);" width="1061.839" height="849.479"/>
		</g>
	</mask>
	
		<path style="clip-path:url(#SVGID_00000047743666924829079520000001941031944474653875_);mask:url(#SVGID_00000016055962964223495860000001785581407165016999_);fill-rule:evenodd;clip-rule:evenodd;fill:#1C4104;" d="
		M2252.34,1896.987c-45.865-40.908-97.562-81.67-155.622-120.766h-59.422c-27.221,0-51.949-11.112-69.847-29.01
		c-16.642-16.644-27.413-39.189-28.845-64.156c-120.244-61.477-261.286-114.061-426.006-149.714
		c0,0,421.444,130.992,744.816,489.182c-3.289-9.827-5.075-20.342-5.075-31.253V1896.987z M2496.39,2382.819h28.071
		c27.491,0,49.978-22.487,49.978-49.978c0,0-38.531-105.823-142.887-242.714h-80.357c-16.242,0-31.599-3.955-45.141-10.952
		C2378.324,2167.565,2443.941,2268.331,2496.39,2382.819z"/>
	
		<path style="clip-path:url(#SVGID_00000047743666924829079520000001941031944474653875_);fill-rule:evenodd;clip-rule:evenodd;fill:#19B5FE;" d="
		M2573.268,1991.269v-248.793h248.788c35.814,0,65.114-29.299,65.114-65.112v-156.963c0-35.815-29.299-65.114-65.114-65.114
		h-248.788v-248.779c0-35.815-29.299-65.114-65.109-65.114h-156.966c-35.81,0-65.109,29.299-65.109,65.114v248.779h-248.788
		c-35.815,0-65.114,29.299-65.114,65.114v156.963c0,35.813,29.299,65.112,65.114,65.112h248.788v248.793
		c0,35.815,29.299,65.113,65.109,65.113h156.966C2543.969,2056.383,2573.268,2027.084,2573.268,1991.269"/>
</g>
</svg>
